<svg xmlns="http://www.w3.org/2000/svg" xmlns:xlink="http://www.w3.org/1999/xlink"  zoomAndPan="magnify" viewBox="395 650 780 185"  preserveAspectRatio="xMidYMid meet" version="1.0"><defs><g/><clipPath id="6af635f158"><path d="M 409.617188 666.03125 L 562.617188 666.03125 L 562.617188 819 L 409.617188 819 Z M 409.617188 666.03125 " clip-rule="nonzero"/></clipPath><clipPath id="a0d146f190"><rect x="0" width="578" y="0" height="128"/></clipPath></defs><g clip-path="url(#6af635f158)"><path fill="#ffffff" d="M 557.042969 754.5 C 560.046875 754.5 562.5 752.042969 562.5 749.039062 L 562.5 735.84375 C 562.5 732.839844 560.046875 730.386719 557.042969 730.386719 L 551.375 730.386719 C 548.375 730.386719 545.199219 728.035156 544.3125 725.167969 L 539.476562 713.429688 C 538.058594 710.78125 538.632812 706.882812 540.753906 704.761719 L 544.765625 700.75 C 546.886719 698.625 546.890625 695.152344 544.765625 693.03125 L 535.4375 683.699219 C 533.3125 681.578125 529.839844 681.578125 527.714844 683.699219 L 523.707031 687.710938 C 521.582031 689.835938 517.679688 690.40625 515.035156 688.988281 L 503.296875 684.152344 C 500.429688 683.269531 498.082031 680.09375 498.082031 677.089844 L 498.082031 671.421875 C 498.082031 668.421875 495.625 665.964844 492.625 665.964844 L 479.425781 665.964844 C 476.425781 665.964844 473.96875 668.421875 473.96875 671.421875 L 473.96875 677.089844 C 473.96875 680.09375 471.621094 683.269531 468.753906 684.152344 L 457.011719 688.988281 C 454.367188 690.40625 450.46875 689.832031 448.347656 687.710938 L 444.335938 683.699219 C 442.210938 681.574219 438.738281 681.574219 436.617188 683.699219 L 427.285156 693.027344 C 425.160156 695.152344 425.160156 698.625 427.285156 700.746094 L 431.296875 704.757812 C 433.421875 706.882812 433.992188 710.78125 432.574219 713.429688 L 427.738281 725.167969 C 426.855469 728.035156 423.679688 730.382812 420.675781 730.382812 L 415.011719 730.382812 C 412.011719 730.382812 409.554688 732.839844 409.554688 735.839844 L 409.554688 749.039062 C 409.554688 752.042969 412.011719 754.5 415.011719 754.5 L 420.675781 754.5 C 423.679688 754.5 426.855469 756.84375 427.738281 759.714844 L 432.578125 771.457031 C 433.996094 774.097656 433.421875 778 431.300781 780.121094 L 427.285156 784.136719 C 425.164062 786.257812 425.164062 789.730469 427.285156 791.851562 L 436.617188 801.183594 C 438.738281 803.308594 442.210938 803.304688 444.335938 801.183594 L 448.347656 797.171875 C 450.472656 795.050781 454.371094 794.472656 457.015625 795.894531 L 468.753906 800.730469 C 471.625 801.613281 473.96875 804.789062 473.96875 807.792969 L 473.96875 813.460938 C 473.96875 816.460938 476.425781 818.917969 479.429688 818.917969 L 492.625 818.917969 C 495.625 818.917969 498.082031 816.460938 498.082031 813.460938 L 498.082031 807.792969 C 498.082031 804.789062 500.429688 801.613281 503.296875 800.730469 L 515.039062 795.894531 C 517.683594 794.476562 521.585938 795.046875 523.707031 797.171875 L 527.71875 801.183594 C 529.839844 803.308594 533.316406 803.304688 535.4375 801.183594 L 544.769531 791.851562 C 546.890625 789.730469 546.890625 786.257812 544.769531 784.132812 L 540.757812 780.121094 C 538.632812 778 538.0625 774.097656 539.480469 771.453125 L 544.3125 759.714844 C 545.195312 756.84375 548.375 754.5 551.378906 754.5 Z M 486.023438 773.902344 C 468.648438 773.902344 454.5625 759.816406 454.5625 742.441406 C 454.5625 725.0625 468.648438 710.976562 486.023438 710.976562 C 503.402344 710.976562 517.488281 725.0625 517.488281 742.441406 C 517.488281 759.816406 503.402344 773.902344 486.023438 773.902344 Z M 486.023438 773.902344 " fill-opacity="1" fill-rule="nonzero"/></g><g transform="matrix(1, 0, 0, 1, 589, 690)"><g clip-path="url(#a0d146f190)"><g fill="#ffffff" fill-opacity="1"><g transform="translate(0.791604, 96.124253)"><g><path d="M 71.171875 -88.859375 L 71.171875 -71.546875 L 45.8125 -71.546875 L 45.8125 0 L 26.234375 0 L 26.234375 -71.546875 L 0.875 -71.546875 L 0.875 -88.859375 Z M 71.171875 -88.859375 "/></g></g></g><g fill="#ffffff" fill-opacity="1"><g transform="translate(72.833966, 96.124253)"><g><path d="M 16.3125 -91.125 C 19.238281 -91.125 21.789062 -90.078125 23.96875 -87.984375 C 26.144531 -85.890625 27.234375 -83.296875 27.234375 -80.203125 C 27.234375 -77.109375 26.144531 -74.515625 23.96875 -72.421875 C 21.789062 -70.328125 19.238281 -69.28125 16.3125 -69.28125 C 13.21875 -69.28125 10.625 -70.367188 8.53125 -72.546875 C 6.4375 -74.722656 5.390625 -77.273438 5.390625 -80.203125 C 5.390625 -83.296875 6.476562 -85.890625 8.65625 -87.984375 C 10.832031 -90.078125 13.382812 -91.125 16.3125 -91.125 Z M 25.734375 -61 L 25.734375 0 L 6.90625 0 L 6.90625 -61 Z M 25.734375 -61 "/></g></g></g><g fill="#ffffff" fill-opacity="1"><g transform="translate(105.466388, 96.124253)"><g><path d="M 42.796875 -62.5 C 52.085938 -62.5 58.363281 -58.863281 61.625 -51.59375 C 63.800781 -55.519531 66.4375 -58.316406 69.53125 -59.984375 C 72.632812 -61.660156 76.441406 -62.5 80.953125 -62.5 C 95.347656 -62.5 102.546875 -53.882812 102.546875 -36.65625 L 102.546875 0 L 83.71875 0 L 83.71875 -35.765625 C 83.71875 -42.546875 80.957031 -45.9375 75.4375 -45.9375 C 67.820312 -45.9375 64.015625 -41.503906 64.015625 -32.640625 L 64.015625 0 L 45.1875 0 L 45.1875 -33.390625 C 45.1875 -38.078125 44.453125 -41.335938 42.984375 -43.171875 C 41.523438 -45.015625 39.457031 -45.9375 36.78125 -45.9375 C 33.007812 -45.9375 30.179688 -44.785156 28.296875 -42.484375 C 26.421875 -40.179688 25.484375 -36.351562 25.484375 -31 L 25.484375 0 L 6.65625 0 L 6.65625 -61 L 24.734375 -61 L 24.734375 -52.71875 L 24.984375 -52.71875 C 26.648438 -55.8125 29.070312 -58.210938 32.25 -59.921875 C 35.4375 -61.640625 38.953125 -62.5 42.796875 -62.5 Z M 42.796875 -62.5 "/></g></g></g><g fill="#ffffff" fill-opacity="1"><g transform="translate(214.659502, 96.124253)"><g><path d="M 4.765625 -30.5 C 4.765625 -39.875 7.941406 -47.550781 14.296875 -53.53125 C 20.660156 -59.507812 28.945312 -62.5 39.15625 -62.5 C 47.695312 -62.5 54.519531 -59.550781 59.625 -53.65625 C 64.726562 -47.757812 67.28125 -39.832031 67.28125 -29.875 L 67.28125 -24.59375 L 23.59375 -24.59375 C 24.351562 -21.082031 25.941406 -18.238281 28.359375 -16.0625 C 30.785156 -13.882812 33.925781 -12.796875 37.78125 -12.796875 C 42.96875 -12.796875 47.441406 -15.265625 51.203125 -20.203125 L 64.390625 -10.546875 C 61.378906 -6.691406 57.507812 -3.71875 52.78125 -1.625 C 48.050781 0.457031 43.34375 1.5 38.65625 1.5 C 28.945312 1.5 20.867188 -1.488281 14.421875 -7.46875 C 7.984375 -13.445312 4.765625 -21.125 4.765625 -30.5 Z M 48.453125 -37.40625 C 48.453125 -40.914062 47.320312 -43.71875 45.0625 -45.8125 C 42.800781 -47.90625 40.039062 -48.953125 36.78125 -48.953125 C 33.257812 -48.953125 30.265625 -47.90625 27.796875 -45.8125 C 25.328125 -43.71875 23.925781 -40.914062 23.59375 -37.40625 Z M 48.453125 -37.40625 "/></g></g></g><g fill="#ffffff" fill-opacity="1"><g transform="translate(286.701865, 96.124253)"><g><path d="M 42.921875 -88.859375 C 64.097656 -88.859375 74.6875 -81.328125 74.6875 -66.265625 C 74.6875 -61.242188 73.28125 -57.082031 70.46875 -53.78125 C 67.664062 -50.476562 63.96875 -48.113281 59.375 -46.6875 L 59.375 -46.4375 C 65.226562 -45.6875 69.929688 -43.34375 73.484375 -39.40625 C 77.046875 -35.476562 78.828125 -30.585938 78.828125 -24.734375 C 78.828125 -17.023438 75.8125 -10.972656 69.78125 -6.578125 C 63.757812 -2.191406 55.6875 0 45.5625 0 L 9.03125 0 L 9.03125 -88.859375 Z M 43.171875 -53.34375 C 46.691406 -53.34375 49.554688 -54.195312 51.765625 -55.90625 C 53.984375 -57.625 55.09375 -59.992188 55.09375 -63.015625 C 55.09375 -66.023438 53.941406 -68.320312 51.640625 -69.90625 C 49.347656 -71.5 46.234375 -72.296875 42.296875 -72.296875 L 28.625 -72.296875 L 28.625 -53.34375 Z M 46.5625 -16.5625 C 50.164062 -16.5625 53.179688 -17.460938 55.609375 -19.265625 C 58.035156 -21.066406 59.25 -23.640625 59.25 -26.984375 C 59.25 -30.078125 57.953125 -32.484375 55.359375 -34.203125 C 52.765625 -35.921875 48.957031 -36.78125 43.9375 -36.78125 L 28.625 -36.78125 L 28.625 -16.5625 Z M 46.5625 -16.5625 "/></g></g></g><g fill="#ffffff" fill-opacity="1"><g transform="translate(368.031926, 96.124253)"><g><path d="M 25.734375 -94.890625 L 25.734375 0 L 6.90625 0 L 6.90625 -94.890625 Z M 25.734375 -94.890625 "/></g></g></g><g fill="#ffffff" fill-opacity="1"><g transform="translate(400.66437, 96.124253)"><g><path d="M 34.390625 -62.5 C 44.097656 -62.5 51.164062 -60.15625 55.59375 -55.46875 C 60.03125 -50.789062 62.25 -42.925781 62.25 -31.875 L 62.25 0 L 44.9375 0 L 44.9375 -7.65625 L 44.6875 -7.65625 C 40.75 -1.550781 34.304688 1.5 25.359375 1.5 C 18.992188 1.5 13.78125 -0.234375 9.71875 -3.703125 C 5.664062 -7.171875 3.640625 -11.710938 3.640625 -17.328125 C 3.640625 -22.171875 5.019531 -26.203125 7.78125 -29.421875 C 10.539062 -32.648438 14.703125 -35.015625 20.265625 -36.515625 C 25.835938 -38.023438 34.0625 -38.78125 44.9375 -38.78125 C 44.9375 -42.039062 43.722656 -44.675781 41.296875 -46.6875 C 38.867188 -48.695312 36.066406 -49.703125 32.890625 -49.703125 C 27.023438 -49.703125 21.921875 -47.273438 17.578125 -42.421875 L 7.53125 -52.71875 C 11.039062 -56.144531 15.203125 -58.628906 20.015625 -60.171875 C 24.828125 -61.722656 29.617188 -62.5 34.390625 -62.5 Z M 21.71875 -17.953125 C 21.71875 -15.941406 22.570312 -14.328125 24.28125 -13.109375 C 26 -11.898438 28.15625 -11.296875 30.75 -11.296875 C 34.9375 -11.296875 38.347656 -12.363281 40.984375 -14.5 C 43.617188 -16.632812 44.9375 -19.414062 44.9375 -22.84375 L 44.9375 -26.734375 L 39.28125 -26.734375 C 33.59375 -26.734375 29.242188 -25.957031 26.234375 -24.40625 C 23.222656 -22.863281 21.71875 -20.710938 21.71875 -17.953125 Z M 21.71875 -17.953125 "/></g></g></g><g fill="#ffffff" fill-opacity="1"><g transform="translate(468.062849, 96.124253)"><g><path d="M 30.125 -62.5 C 40.164062 -62.5 47.695312 -59.820312 52.71875 -54.46875 L 41.171875 -43.046875 C 38.328125 -46.484375 34.726562 -48.203125 30.375 -48.203125 C 28.28125 -48.203125 26.582031 -47.738281 25.28125 -46.8125 C 23.988281 -45.894531 23.34375 -44.679688 23.34375 -43.171875 C 23.34375 -41.671875 24.195312 -40.519531 25.90625 -39.71875 C 27.625 -38.925781 30.535156 -38.113281 34.640625 -37.28125 C 42.171875 -35.851562 47.460938 -33.613281 50.515625 -30.5625 C 53.566406 -27.507812 55.09375 -23.515625 55.09375 -18.578125 C 55.09375 -12.296875 52.625 -7.378906 47.6875 -3.828125 C 42.757812 -0.273438 35.859375 1.5 26.984375 1.5 C 16.523438 1.5 8.535156 -1.257812 3.015625 -6.78125 L 14.4375 -19.453125 C 18.195312 -15.015625 22.628906 -12.796875 27.734375 -12.796875 C 33.429688 -12.796875 36.28125 -14.265625 36.28125 -17.203125 C 36.28125 -18.867188 35.398438 -20.117188 33.640625 -20.953125 C 31.878906 -21.796875 29.535156 -22.507812 26.609375 -23.09375 C 20.421875 -24.269531 15.960938 -25.585938 13.234375 -27.046875 C 10.515625 -28.515625 8.378906 -30.441406 6.828125 -32.828125 C 5.285156 -35.210938 4.515625 -38.242188 4.515625 -41.921875 C 4.515625 -48.109375 6.859375 -53.082031 11.546875 -56.84375 C 16.234375 -60.613281 22.425781 -62.5 30.125 -62.5 Z M 30.125 -62.5 "/></g></g></g><g fill="#ffffff" fill-opacity="1"><g transform="translate(526.173695, 96.124253)"><g><path d="M 31.625 -79.078125 L 31.625 -61 L 48.203125 -61 L 48.203125 -45.9375 L 31.625 -45.9375 L 31.625 -24.46875 C 31.625 -20.707031 32.3125 -18.070312 33.6875 -16.5625 C 35.070312 -15.0625 37.359375 -14.3125 40.546875 -14.3125 C 44.472656 -14.3125 47.023438 -14.894531 48.203125 -16.0625 L 48.203125 -0.375 C 44.597656 0.875 40.203125 1.5 35.015625 1.5 C 27.648438 1.5 22.101562 -0.109375 18.375 -3.328125 C 14.65625 -6.546875 12.796875 -10.914062 12.796875 -16.4375 L 12.796875 -45.9375 L 0.75 -45.9375 L 0.75 -61 L 12.796875 -61 L 12.796875 -79.078125 Z M 31.625 -79.078125 "/></g></g></g></g></g></svg>